<?xml version="1.0" encoding="utf-8"?>
<!-- Generator: Adobe Illustrator 27.5.0, SVG Export Plug-In . SVG Version: 6.00 Build 0)  -->
<svg version="1.1" id="Layer_1" xmlns="http://www.w3.org/2000/svg" xmlns:xlink="http://www.w3.org/1999/xlink" x="0px" y="0px"
	 viewBox="0 0 988.6 66.1" style="enable-background:new 0 0 988.6 66.1;" xml:space="preserve">
<style type="text/css">
	.st0{fill:#004790;}
</style>
<g id="_02" transform="translate(0.033)">
	<g id="Layer_2_1_">
		<g id="Layer_1-2">
			<path class="st0" d="M988.5,0v22.2c-2.9,0.3-5.8,0.6-8.7,0.9c-39.8,3.5-79.6,7-119.4,10.4c-46.8,4.2-93.5,8.5-140.3,12.6
				c-39.3,3.5-78.6,6.8-118,10.4c-35.2,3.1-70.3,6.7-105.5,9.4c-9.5,0.7-19.2-1-28.8-1.9c-32.2-2.8-64.3-5.7-96.5-8.7
				c-31.5-2.8-63-5.7-94.5-8.6c-27.4-2.5-54.7-4.9-82.1-7.4l-96-8.7c-27.6-2.1-55.7-4.5-84.1-7.4c-4.9-0.5-9.8-1-14.6-1.5V0H988.5z"
				/>
		</g>
	</g>
</g>
</svg>
